<mxfile host="app.diagrams.net" modified="2022-07-16T04:42:47.638Z" agent="5.0 (Windows NT 10.0; Win64; x64) AppleWebKit/537.36 (KHTML, like Gecko) Chrome/103.0.0.0 Safari/537.36" etag="2bgt-_dZgNe2PRuP9Yiq" version="20.1.1" type="github">
  <diagram id="aS8nUIl-V_VLN1_AymHf" name="Page-1">
    <mxGraphModel dx="576" dy="344" grid="1" gridSize="10" guides="1" tooltips="1" connect="1" arrows="1" fold="1" page="1" pageScale="1" pageWidth="827" pageHeight="1169" math="0" shadow="0">
      <root>
        <mxCell id="0" />
        <mxCell id="1" parent="0" />
        <mxCell id="H8gTTVKrtMAXyWVlTKZV-1" value="Login" style="rounded=0;whiteSpace=wrap;html=1;" vertex="1" parent="1">
          <mxGeometry x="350" y="70" width="120" height="60" as="geometry" />
        </mxCell>
        <mxCell id="H8gTTVKrtMAXyWVlTKZV-2" value="Kategori" style="rounded=0;whiteSpace=wrap;html=1;" vertex="1" parent="1">
          <mxGeometry x="40" y="160" width="120" height="60" as="geometry" />
        </mxCell>
        <mxCell id="H8gTTVKrtMAXyWVlTKZV-3" value="Pengguna" style="rounded=0;whiteSpace=wrap;html=1;" vertex="1" parent="1">
          <mxGeometry x="190" y="160" width="120" height="60" as="geometry" />
        </mxCell>
        <mxCell id="H8gTTVKrtMAXyWVlTKZV-4" value="Menu" style="rounded=0;whiteSpace=wrap;html=1;" vertex="1" parent="1">
          <mxGeometry x="360" y="160" width="120" height="60" as="geometry" />
        </mxCell>
        <mxCell id="H8gTTVKrtMAXyWVlTKZV-5" value="Rekening" style="rounded=0;whiteSpace=wrap;html=1;" vertex="1" parent="1">
          <mxGeometry x="510" y="160" width="120" height="60" as="geometry" />
        </mxCell>
        <mxCell id="H8gTTVKrtMAXyWVlTKZV-6" value="Produk" style="rounded=0;whiteSpace=wrap;html=1;" vertex="1" parent="1">
          <mxGeometry x="660" y="160" width="120" height="60" as="geometry" />
        </mxCell>
        <mxCell id="H8gTTVKrtMAXyWVlTKZV-7" value="" style="endArrow=classic;startArrow=classic;html=1;rounded=0;entryX=0.5;entryY=1;entryDx=0;entryDy=0;exitX=0.418;exitY=0.007;exitDx=0;exitDy=0;exitPerimeter=0;" edge="1" parent="1" source="H8gTTVKrtMAXyWVlTKZV-4" target="H8gTTVKrtMAXyWVlTKZV-1">
          <mxGeometry width="50" height="50" relative="1" as="geometry">
            <mxPoint x="425" y="180" as="sourcePoint" />
            <mxPoint x="475" y="130" as="targetPoint" />
            <Array as="points" />
          </mxGeometry>
        </mxCell>
        <mxCell id="H8gTTVKrtMAXyWVlTKZV-8" value="" style="endArrow=classic;startArrow=classic;html=1;rounded=0;entryX=0;entryY=0.5;entryDx=0;entryDy=0;exitX=1;exitY=0.5;exitDx=0;exitDy=0;" edge="1" parent="1" source="H8gTTVKrtMAXyWVlTKZV-3" target="H8gTTVKrtMAXyWVlTKZV-4">
          <mxGeometry width="50" height="50" relative="1" as="geometry">
            <mxPoint x="360" y="190" as="sourcePoint" />
            <mxPoint x="400" y="140" as="targetPoint" />
          </mxGeometry>
        </mxCell>
        <mxCell id="H8gTTVKrtMAXyWVlTKZV-9" value="" style="endArrow=classic;startArrow=classic;html=1;rounded=0;entryX=0;entryY=0.5;entryDx=0;entryDy=0;" edge="1" parent="1">
          <mxGeometry width="50" height="50" relative="1" as="geometry">
            <mxPoint x="160" y="189.71" as="sourcePoint" />
            <mxPoint x="190" y="189.71" as="targetPoint" />
          </mxGeometry>
        </mxCell>
        <mxCell id="H8gTTVKrtMAXyWVlTKZV-10" value="" style="endArrow=classic;startArrow=classic;html=1;rounded=0;entryX=0;entryY=0.5;entryDx=0;entryDy=0;" edge="1" parent="1">
          <mxGeometry width="50" height="50" relative="1" as="geometry">
            <mxPoint x="480" y="189.83000000000004" as="sourcePoint" />
            <mxPoint x="510" y="189.83000000000004" as="targetPoint" />
          </mxGeometry>
        </mxCell>
        <mxCell id="H8gTTVKrtMAXyWVlTKZV-11" value="" style="endArrow=classic;startArrow=classic;html=1;rounded=0;entryX=0;entryY=0.5;entryDx=0;entryDy=0;" edge="1" parent="1">
          <mxGeometry width="50" height="50" relative="1" as="geometry">
            <mxPoint x="630" y="189.83000000000004" as="sourcePoint" />
            <mxPoint x="660" y="189.83000000000004" as="targetPoint" />
          </mxGeometry>
        </mxCell>
        <mxCell id="H8gTTVKrtMAXyWVlTKZV-12" value="Tambah" style="rounded=0;whiteSpace=wrap;html=1;" vertex="1" parent="1">
          <mxGeometry x="215" y="260" width="120" height="60" as="geometry" />
        </mxCell>
        <mxCell id="H8gTTVKrtMAXyWVlTKZV-13" value="Ubah" style="rounded=0;whiteSpace=wrap;html=1;" vertex="1" parent="1">
          <mxGeometry x="366" y="260" width="120" height="60" as="geometry" />
        </mxCell>
        <mxCell id="H8gTTVKrtMAXyWVlTKZV-14" value="Hapus" style="rounded=0;whiteSpace=wrap;html=1;" vertex="1" parent="1">
          <mxGeometry x="517" y="260" width="120" height="60" as="geometry" />
        </mxCell>
        <mxCell id="H8gTTVKrtMAXyWVlTKZV-15" value="" style="endArrow=classic;startArrow=classic;html=1;rounded=0;exitX=0.5;exitY=1;exitDx=0;exitDy=0;entryX=0;entryY=0.5;entryDx=0;entryDy=0;" edge="1" parent="1" source="H8gTTVKrtMAXyWVlTKZV-2" target="H8gTTVKrtMAXyWVlTKZV-12">
          <mxGeometry width="50" height="50" relative="1" as="geometry">
            <mxPoint x="400" y="340" as="sourcePoint" />
            <mxPoint x="450" y="290" as="targetPoint" />
            <Array as="points">
              <mxPoint x="100" y="290" />
            </Array>
          </mxGeometry>
        </mxCell>
        <mxCell id="H8gTTVKrtMAXyWVlTKZV-16" value="" style="endArrow=classic;startArrow=classic;html=1;rounded=0;entryX=0;entryY=0.5;entryDx=0;entryDy=0;" edge="1" parent="1">
          <mxGeometry width="50" height="50" relative="1" as="geometry">
            <mxPoint x="486" y="289.76000000000005" as="sourcePoint" />
            <mxPoint x="516" y="289.76000000000005" as="targetPoint" />
          </mxGeometry>
        </mxCell>
        <mxCell id="H8gTTVKrtMAXyWVlTKZV-17" value="" style="endArrow=classic;startArrow=classic;html=1;rounded=0;entryX=0;entryY=0.5;entryDx=0;entryDy=0;" edge="1" parent="1">
          <mxGeometry width="50" height="50" relative="1" as="geometry">
            <mxPoint x="335" y="289.76" as="sourcePoint" />
            <mxPoint x="365" y="289.76" as="targetPoint" />
          </mxGeometry>
        </mxCell>
        <mxCell id="H8gTTVKrtMAXyWVlTKZV-18" value="" style="endArrow=classic;startArrow=classic;html=1;rounded=0;entryX=0;entryY=0.5;entryDx=0;entryDy=0;" edge="1" parent="1">
          <mxGeometry width="50" height="50" relative="1" as="geometry">
            <mxPoint x="720" y="220" as="sourcePoint" />
            <mxPoint x="637" y="290" as="targetPoint" />
            <Array as="points">
              <mxPoint x="721" y="290" />
            </Array>
          </mxGeometry>
        </mxCell>
      </root>
    </mxGraphModel>
  </diagram>
</mxfile>
